<svg viewBox="0 0 100 100" fill="none" xmlns="http://www.w3.org/2000/svg" class="w-32 h-32 rounded-2xl shadow-lg">
    <rect width="100" height="100" fill="#1A3A52" rx="20"></rect>
    <circle cx="50" cy="50" r="38" stroke="#C9A962" stroke-width="3" fill="none"></circle>
    <path d="M 30 35 Q 40 35 40 42 Q 40 46 35 46 Q 40 46 40 53 Q 40 60 30 60 L 26 60 L 26 35 Z" fill="#FAFAF8"></path>
    <path d="M 40 47.5 Q 50 44 60 47.5 M 40 47.5 Q 50 51 60 47.5" stroke="#C9A962" stroke-width="3"
        stroke-linecap="round"></path>
    <path d="M 70 35 Q 60 35 60 42 Q 60 46 65 46 Q 60 46 60 53 Q 60 60 70 60 L 74 60 L 74 35 Z" fill="#FAFAF8"></path>
    <circle cx="50" cy="25" r="2.5" fill="#C9A962"></circle>
    <circle cx="50" cy="75" r="2.5" fill="#C9A962"></circle>
</svg>